<svg width="19" height="20" viewBox="0 0 19 20" fill="none" xmlns="http://www.w3.org/2000/svg">
<path d="M6.97684 12.1719L0.331894 10.411C0.137207 10.3726 0 10.2014 0 10C0 9.80196 0.137403 9.62716 0.331894 9.58897L6.97684 7.8281C7.15066 7.78972 7.2922 7.64995 7.3296 7.47534L9.08218 0.831109C9.12864 0.637995 9.3001 0.5 9.4999 0.5C9.69951 0.5 9.87117 0.637995 9.91762 0.831109L11.6686 7.47534C11.7086 7.65015 11.8491 7.78991 12.0232 7.8281L18.6681 9.58897C18.863 9.62716 19 9.80196 19 10C19 10.2016 18.8628 10.3728 18.6681 10.411L12.0232 12.1719C11.8491 12.2085 11.7086 12.35 11.6686 12.5247L9.91762 19.1689C9.87117 19.3636 9.69951 19.5 9.4999 19.5C9.3001 19.5 9.12864 19.3634 9.08218 19.1689L7.3296 12.5247C7.2922 12.35 7.15066 12.2085 6.97684 12.1719Z" fill="#DEB359"/>
</svg>
